# This file uses centimeters as units for non-parametric coordinates.

mtllib grassy.mtl
g default
v -0.341092 0.655936 3.000098
v -0.340432 0.655795 3.030114
v -0.338790 0.673584 3.015146
v -0.433216 0.648223 3.027295
v -0.175111 0.489964 2.990872
v -0.205731 0.463427 3.014266
v -0.205731 0.463427 2.967479
v 0.025579 -0.010595 2.992670
v -0.021149 -0.010536 3.020211
v -0.021149 -0.010536 2.965129
v -0.076641 0.252209 2.956675
v -0.033525 0.270039 2.983976
v -0.076641 0.252209 3.011277
v 0.220195 0.613720 2.736196
v 0.185299 0.616065 2.722613
v 0.203164 0.640286 2.732150
v 0.232344 0.586568 2.616641
v 0.140733 0.557824 2.855652
v 0.130886 0.536432 2.823331
v 0.167741 0.533747 2.838619
v 0.018977 -0.010648 3.038782
v 0.011364 -0.010619 2.985020
v 0.061594 -0.010596 3.005857
v 0.118919 0.275903 2.935271
v 0.083149 0.290587 2.961990
v 0.075168 0.279090 2.917121
v -0.030060 0.509296 3.395423
v 0.007206 0.510545 3.391241
v -0.012123 0.535453 3.392908
v 0.002249 0.492027 3.480106
v -0.034759 0.479111 3.214207
v -0.010943 0.457718 3.238173
v -0.050670 0.455034 3.241891
v -0.007527 -0.010648 2.985347
v 0.024340 -0.010619 3.029311
v -0.029804 -0.010596 3.034378
v -0.045548 0.275903 3.133881
v -0.026421 0.290587 3.093537
v 0.001613 0.279090 3.129468
v 0.459720 0.692004 3.133026
v 0.468635 0.694453 3.094942
v 0.461400 0.719753 3.114819
v 0.585140 0.663643 3.128008
v 0.261012 0.645688 3.060102
v 0.296399 0.620960 3.043572
v 0.284900 0.617857 3.088239
v 0.016979 -0.010656 2.962443
v 0.077266 -0.010623 2.944982
v 0.061594 -0.010596 3.005857
v 0.166304 0.316758 3.051357
v 0.129905 0.333732 3.014768
v 0.179955 0.320442 2.998333
v 0.173582 0.749245 2.963811
v 0.162617 0.748174 2.934590
v 0.159634 0.768080 2.951484
v 0.257379 0.756565 2.905159
v 0.084213 0.654814 2.978393
v 0.104092 0.645546 2.953356
v 0.115581 0.645568 2.984597
v 0.018053 -0.010536 2.997708
v 0.045937 -0.010596 2.963279
v 0.061594 -0.010596 3.005857
v 0.082204 0.457590 2.993499
v 0.040314 0.455305 2.985970
v 0.067345 0.457562 2.953093
v 0.085490 0.525032 3.159092
v 0.105498 0.525788 3.135344
v 0.086855 0.543428 3.140291
v 0.148878 0.554308 3.186523
v 0.039810 0.346760 3.082883
v 0.065623 0.330802 3.084428
v 0.045651 0.329641 3.107300
v -0.007774 -0.010617 2.989795
v 0.036436 -0.010597 2.998270
v 0.006779 -0.010587 3.032233
v 0.024643 0.168373 3.070521
v 0.013087 0.178766 3.034849
v 0.050476 0.169875 3.040938
v -0.139845 0.637483 3.287865
v -0.111014 0.636143 3.299792
v -0.122736 0.657571 3.290097
v -0.154764 0.623693 3.388377
v -0.082687 0.563539 3.196311
v -0.077325 0.548592 3.225565
v -0.107906 0.548971 3.212427
v -0.023960 -0.010536 3.046493
v -0.018536 -0.010596 3.090463
v -0.060053 -0.010596 3.072175
v -0.067469 0.386084 3.116066
v -0.032969 0.383799 3.091141
v -0.028070 0.386056 3.133421
v 0.002140 0.414877 2.896545
v -0.020188 0.414523 2.907300
v -0.005558 0.429158 2.909906
v -0.039186 0.441823 2.862924
v 0.016041 0.272483 2.965775
v -0.001740 0.259127 2.956112
v 0.020289 0.259140 2.945979
v 0.031122 -0.010592 3.046793
v 0.001818 -0.010570 3.026159
v 0.034529 -0.010571 3.011113
v 0.028576 0.130409 2.978558
v 0.025024 0.138326 3.008369
v 0.000084 0.130392 2.991663
v -0.159680 0.291105 2.774905
v -0.176209 0.283942 2.794434
v -0.173513 0.304643 2.786434
v -0.216897 0.273333 2.752412
v -0.078886 0.256908 2.872945
v -0.086880 0.229420 2.875470
v -0.068520 0.237202 2.854776
v 0.025334 -0.010807 2.994182
v -0.007527 -0.010648 2.985347
v 0.021705 -0.010700 2.955394
v -0.007141 0.148440 2.911837
v -0.007681 0.167748 2.943161
v -0.032602 0.141182 2.937927
v -0.087149 0.619038 3.062620
v -0.071407 0.619816 3.080729
v -0.075362 0.632548 3.067707
v -0.129182 0.678230 3.125186
v -0.018696 0.453837 3.005129
v -0.029000 0.441296 3.038837
v -0.052960 0.439680 3.010149
v 0.025334 -0.010807 2.994182
v 0.010181 -0.010834 3.035319
v -0.018027 -0.010822 3.001546
v -0.014204 0.248177 2.977298
v 0.028153 0.252956 2.970121
v 0.013758 0.250063 3.010777
vt 0.861050 0.072068
vt 0.861050 0.016216
vt 0.877173 0.042852
vt 0.909419 0.044142
vt 0.643647 0.075091
vt 0.645618 0.042891
vt 0.975919 0.044225
vt 0.974101 0.073912
vt 0.974589 0.103650
vt 0.644176 0.107346
vt 0.649251 0.010836
vt 0.979268 0.014672
vt 0.298787 0.076321
vt 0.300919 0.041499
vt 0.483432 0.042236
vt 0.481385 0.075670
vt 0.299359 0.111204
vt 0.481935 0.109162
vt 0.304848 0.006833
vt 0.487204 0.008952
vt 0.861050 0.072068
vt 0.861050 0.016216
vt 0.877173 0.042852
vt 0.909419 0.044142
vt 0.643647 0.075091
vt 0.645618 0.042891
vt 0.975919 0.044225
vt 0.974101 0.073912
vt 0.974589 0.103650
vt 0.644176 0.107346
vt 0.649251 0.010836
vt 0.979268 0.014672
vt 0.298787 0.076321
vt 0.300919 0.041499
vt 0.483432 0.042236
vt 0.481385 0.075670
vt 0.299359 0.111204
vt 0.481935 0.109162
vt 0.304848 0.006833
vt 0.487204 0.008952
vt 0.861050 0.072068
vt 0.861050 0.016216
vt 0.877173 0.042852
vt 0.909419 0.044142
vt 0.643647 0.075091
vt 0.645618 0.042891
vt 0.975919 0.044225
vt 0.974101 0.073912
vt 0.974589 0.103650
vt 0.644176 0.107346
vt 0.649251 0.010836
vt 0.979268 0.014672
vt 0.298787 0.076321
vt 0.300919 0.041499
vt 0.483432 0.042236
vt 0.481385 0.075670
vt 0.299359 0.111204
vt 0.481935 0.109162
vt 0.304848 0.006833
vt 0.487204 0.008952
vt 0.861050 0.072068
vt 0.861050 0.016216
vt 0.877173 0.042852
vt 0.909419 0.044142
vt 0.643647 0.075091
vt 0.645618 0.042891
vt 0.975919 0.044225
vt 0.974101 0.073912
vt 0.974589 0.103650
vt 0.644176 0.107346
vt 0.649251 0.010836
vt 0.979268 0.014672
vt 0.298787 0.076321
vt 0.300919 0.041499
vt 0.483432 0.042236
vt 0.481385 0.075670
vt 0.299359 0.111204
vt 0.481935 0.109162
vt 0.304848 0.006833
vt 0.487204 0.008952
vt 0.861050 0.072068
vt 0.861050 0.016216
vt 0.877173 0.042852
vt 0.909419 0.044142
vt 0.643647 0.075091
vt 0.645618 0.042891
vt 0.975919 0.044225
vt 0.974101 0.073912
vt 0.974589 0.103650
vt 0.644176 0.107346
vt 0.649251 0.010836
vt 0.979268 0.014672
vt 0.298787 0.076321
vt 0.300919 0.041499
vt 0.483432 0.042236
vt 0.481385 0.075670
vt 0.299359 0.111204
vt 0.481935 0.109162
vt 0.304848 0.006833
vt 0.487204 0.008952
vt 0.861050 0.072068
vt 0.861050 0.016216
vt 0.877173 0.042852
vt 0.909419 0.044142
vt 0.643647 0.075091
vt 0.645618 0.042891
vt 0.975919 0.044225
vt 0.974101 0.073912
vt 0.974589 0.103650
vt 0.644176 0.107346
vt 0.649251 0.010836
vt 0.979268 0.014672
vt 0.298787 0.076321
vt 0.300919 0.041499
vt 0.483432 0.042236
vt 0.481385 0.075670
vt 0.299359 0.111204
vt 0.481935 0.109162
vt 0.304848 0.006833
vt 0.487204 0.008952
vt 0.861050 0.072068
vt 0.861050 0.016216
vt 0.877173 0.042852
vt 0.909419 0.044142
vt 0.643647 0.075091
vt 0.645618 0.042891
vt 0.975919 0.044225
vt 0.974101 0.073912
vt 0.974589 0.103650
vt 0.644176 0.107346
vt 0.649251 0.010836
vt 0.979268 0.014672
vt 0.298787 0.076321
vt 0.300919 0.041499
vt 0.483432 0.042236
vt 0.481385 0.075670
vt 0.299359 0.111204
vt 0.481935 0.109162
vt 0.304848 0.006833
vt 0.487204 0.008952
vt 0.861050 0.072068
vt 0.861050 0.016216
vt 0.877173 0.042852
vt 0.909419 0.044142
vt 0.643647 0.075091
vt 0.645618 0.042891
vt 0.975919 0.044225
vt 0.974101 0.073912
vt 0.974589 0.103650
vt 0.644176 0.107346
vt 0.649251 0.010836
vt 0.979268 0.014672
vt 0.298787 0.076321
vt 0.300919 0.041499
vt 0.483432 0.042236
vt 0.481385 0.075670
vt 0.299359 0.111204
vt 0.481935 0.109162
vt 0.304848 0.006833
vt 0.487204 0.008952
vt 0.861050 0.072068
vt 0.861050 0.016216
vt 0.877173 0.042852
vt 0.909419 0.044142
vt 0.643647 0.075091
vt 0.645618 0.042891
vt 0.975919 0.044225
vt 0.974101 0.073912
vt 0.974589 0.103650
vt 0.644176 0.107346
vt 0.649251 0.010836
vt 0.979268 0.014672
vt 0.298787 0.076321
vt 0.300919 0.041499
vt 0.483432 0.042236
vt 0.481385 0.075670
vt 0.299359 0.111204
vt 0.481935 0.109162
vt 0.304848 0.006833
vt 0.487204 0.008952
vt 0.861050 0.072068
vt 0.861050 0.016216
vt 0.877173 0.042852
vt 0.909419 0.044142
vt 0.643647 0.075091
vt 0.645618 0.042891
vt 0.975919 0.044225
vt 0.974101 0.073912
vt 0.974589 0.103650
vt 0.644176 0.107346
vt 0.649251 0.010836
vt 0.979268 0.014672
vt 0.298787 0.076321
vt 0.300919 0.041499
vt 0.483432 0.042236
vt 0.481385 0.075670
vt 0.299359 0.111204
vt 0.481935 0.109162
vt 0.304848 0.006833
vt 0.487204 0.008952
vn -0.358422 -0.288145 -0.887979
vn -0.178007 -0.356717 0.917097
vn -0.658266 0.746994 0.093197
vn 0.260935 0.965297 0.010714
vn -0.382533 -0.275820 0.881812
vn 0.802269 0.596892 -0.009181
vn -0.454461 -0.193822 -0.869424
vn -0.488061 -0.075021 0.869580
vn 0.978330 0.207052 -0.000306
vn 0.924904 0.380200 0.000168
vn -0.455238 -0.172695 0.873461
vn -0.477057 -0.128353 -0.869449
vn -0.460306 -0.178481 -0.869634
vn 0.867667 -0.477033 0.139980
vn -0.811579 -0.338575 -0.476138
vn 0.213107 0.571538 -0.792420
vn 0.020287 0.998705 0.046654
vn -0.680759 -0.211073 -0.701438
vn -0.245715 0.663731 0.706459
vn 0.943678 -0.330556 -0.014337
vn -0.620019 -0.050987 -0.782928
vn -0.342130 0.302348 0.889681
vn -0.333223 0.355487 0.873265
vn -0.630544 -0.093752 -0.770470
vn 0.970813 -0.217849 -0.100322
vn 0.970098 -0.220030 -0.102450
vn -0.842189 -0.477829 0.249794
vn 0.909733 -0.415194 0.000162
vn 0.136039 0.411450 0.901223
vn -0.015729 0.995487 0.093586
vn 0.936777 -0.279693 0.210289
vn -0.096305 0.804062 -0.586694
vn -0.831287 -0.390213 0.395849
vn 0.915375 -0.069814 0.396502
vn -0.114583 0.332456 -0.936133
vn -0.115913 0.435479 -0.892705
vn 0.917957 -0.114763 0.379716
vn -0.811940 -0.230167 0.536448
vn -0.810157 -0.276489 0.516913
vn -0.047994 -0.493846 0.868224
vn 0.291292 -0.373270 -0.880806
vn 0.814529 0.571541 0.099418
vn 0.051082 0.997339 0.052018
vn 0.545604 -0.251757 -0.799334
vn -0.657589 0.743951 -0.118802
vn 0.121056 -0.343711 0.931240
vn 0.676006 -0.096035 -0.730611
vn -0.917322 0.336770 -0.212382
vn -0.905942 0.369737 -0.206312
vn 0.666417 -0.118732 -0.736064
vn 0.234751 -0.207085 0.949741
vn 0.239567 -0.209447 0.948019
vn 0.624619 -0.289301 0.725366
vn -0.062804 -0.338169 -0.938988
vn 0.498888 0.793197 -0.349213
vn -0.390044 0.916436 0.089498
vn 0.130746 -0.119558 -0.984181
vn -0.861646 0.401542 0.310370
vn 0.721587 -0.156711 0.674354
vn 0.163993 -0.029244 -0.986028
vn -0.937308 0.053993 0.344294
vn -0.929251 0.136603 0.343267
vn 0.164724 -0.031737 -0.985829
vn 0.764083 -0.016864 0.644898
vn 0.759865 -0.060544 0.647256
vn -0.254905 -0.256115 0.932432
vn 0.871642 -0.207340 -0.444129
vn 0.471515 0.817054 0.331808
vn -0.473515 0.780933 -0.407342
vn 0.935502 -0.036610 -0.351418
vn -0.717777 0.310557 -0.623178
vn -0.241653 -0.182410 0.953064
vn 0.946438 -0.000766 -0.322884
vn -0.741927 0.232648 -0.628824
vn -0.732458 0.261198 -0.628713
vn 0.947235 -0.001657 -0.320536
vn -0.208161 -0.182762 0.960868
vn -0.213696 -0.183743 0.959465
vn -0.932805 -0.343445 -0.109177
vn 0.751265 -0.395807 0.528145
vn -0.143414 0.650926 0.745471
vn 0.133838 0.978562 -0.156539
vn 0.651283 -0.268000 0.709934
vn 0.314567 0.640620 -0.700467
vn -0.962737 -0.270219 -0.010942
vn 0.597638 -0.072406 0.798490
vn 0.402870 0.112489 -0.908318
vn 0.375925 0.352351 -0.857047
vn 0.621126 -0.151914 0.768846
vn -0.994556 -0.029804 0.099848
vn -0.987998 -0.143442 0.057312
vn 0.579233 -0.189792 -0.792760
vn -0.965247 -0.253356 0.064108
vn -0.371512 0.807723 -0.457780
vn 0.246467 0.748191 0.616006
vn -0.995220 -0.074843 -0.062742
vn 0.387581 0.318756 0.864972
vn 0.617092 -0.152184 -0.772034
vn -0.995211 -0.037393 -0.090321
vn 0.410183 0.245573 0.878319
vn 0.400547 0.271721 0.875060
vn -0.994800 -0.038914 -0.094119
vn 0.588962 -0.157479 -0.792669
vn 0.593881 -0.156310 -0.789223
vn 0.494765 -0.234507 -0.836788
vn -0.587041 -0.655126 0.475597
vn -0.854181 0.193642 -0.482574
vn -0.260477 0.947790 0.183973
vn -0.811310 -0.512011 0.282171
vn 0.205626 0.823793 0.528284
vn 0.514009 -0.196195 -0.835047
vn -0.967605 -0.095256 0.233810
vn 0.585419 0.331208 0.739991
vn 0.479865 0.535906 0.694647
vn -0.940258 -0.254355 0.226316
vn 0.382318 -0.185920 -0.905134
vn 0.426341 -0.194987 -0.883297
vn -0.920052 -0.145925 -0.363607
vn 0.327421 -0.205596 0.922240
vn 0.002442 0.996498 -0.083577
vn 0.536980 0.676470 -0.504025
vn 0.227289 -0.117133 0.966757
vn 0.705393 0.342766 -0.620429
vn -0.931990 -0.093748 -0.350152
vn 0.173881 0.091060 0.980548
vn 0.769413 -0.067915 -0.635131
vn 0.761117 0.108310 -0.639508
vn 0.184663 -0.004277 0.982793
vn -0.937348 -0.018135 -0.347922
vn -0.934258 -0.074071 -0.348821
s 1
g small_plant_01:stalks
usemtl lambert2SG
f 1/1/1 2/2/2 4/3/3
f 2/2/2 3/4/4 4/3/3
f 3/4/4 1/1/1 4/3/3
f 6/5/5 5/6/6 3/7/4 2/8/2
f 1/9/1 7/10/7 6/5/5 2/8/2
f 5/6/6 7/11/7 1/12/1 3/7/4
f 9/13/8 8/14/9 12/15/10 13/16/11
f 10/17/12 9/13/8 13/16/11 11/18/13
f 8/14/9 10/19/12 11/20/13 12/15/10
f 12/15/10 11/20/13 7/11/7 5/6/6
f 13/16/11 12/15/10 5/6/6 6/5/5
f 11/18/13 13/16/11 6/5/5 7/10/7
s 3
f 14/21/14 15/22/15 17/23/16
f 15/22/15 16/24/17 17/23/16
f 16/24/17 14/21/14 17/23/16
f 19/25/18 18/26/19 16/27/17 15/28/15
f 14/29/14 20/30/20 19/25/18 15/28/15
f 18/26/19 20/31/20 14/32/14 16/27/17
f 22/33/21 21/34/22 25/35/23 26/36/24
f 23/37/25 22/33/21 26/36/24 24/38/26
f 21/34/22 23/39/25 24/40/26 25/35/23
f 25/35/23 24/40/26 20/31/20 18/26/19
f 26/36/24 25/35/23 18/26/19 19/25/18
f 24/38/26 26/36/24 19/25/18 20/30/20
s 5
f 27/41/27 28/42/28 30/43/29
f 28/42/28 29/44/30 30/43/29
f 29/44/30 27/41/27 30/43/29
f 32/45/31 31/46/32 29/47/30 28/48/28
f 27/49/27 33/50/33 32/45/31 28/48/28
f 31/46/32 33/51/33 27/52/27 29/47/30
f 35/53/34 34/54/35 38/55/36 39/56/37
f 36/57/38 35/53/34 39/56/37 37/58/39
f 34/54/35 36/59/38 37/60/39 38/55/36
f 38/55/36 37/60/39 33/51/33 31/46/32
f 39/56/37 38/55/36 31/46/32 32/45/31
f 37/58/39 39/56/37 32/45/31 33/50/33
s 7
f 40/61/40 41/62/41 43/63/42
f 41/62/41 42/64/43 43/63/42
f 42/64/43 40/61/40 43/63/42
f 45/65/44 44/66/45 42/67/43 41/68/41
f 40/69/40 46/70/46 45/65/44 41/68/41
f 44/66/45 46/71/46 40/72/40 42/67/43
f 48/73/47 47/74/48 51/75/49 52/76/50
f 49/77/51 48/73/47 52/76/50 50/78/52
f 47/74/48 49/79/51 50/80/52 51/75/49
f 51/75/49 50/80/52 46/71/46 44/66/45
f 52/76/50 51/75/49 44/66/45 45/65/44
f 50/78/52 52/76/50 45/65/44 46/70/46
s 9
f 53/81/53 54/82/54 56/83/55
f 54/82/54 55/84/56 56/83/55
f 55/84/56 53/81/53 56/83/55
f 58/85/57 57/86/58 55/87/56 54/88/54
f 53/89/53 59/90/59 58/85/57 54/88/54
f 57/86/58 59/91/59 53/92/53 55/87/56
f 61/93/60 60/94/61 64/95/62 65/96/63
f 62/97/64 61/93/60 65/96/63 63/98/65
f 60/94/61 62/99/64 63/100/65 64/95/62
f 64/95/62 63/100/65 59/91/59 57/86/58
f 65/96/63 64/95/62 57/86/58 58/85/57
f 63/98/65 65/96/63 58/85/57 59/90/59
s 11
f 66/101/66 67/102/67 69/103/68
f 67/102/67 68/104/69 69/103/68
f 68/104/69 66/101/66 69/103/68
f 71/105/70 70/106/71 68/107/69 67/108/67
f 66/109/66 72/110/72 71/105/70 67/108/67
f 70/106/71 72/111/72 66/112/66 68/107/69
f 74/113/73 73/114/74 77/115/75 78/116/76
f 75/117/77 74/113/73 78/116/76 76/118/78
f 73/114/74 75/119/77 76/120/78 77/115/75
f 77/115/75 76/120/78 72/111/72 70/106/71
f 78/116/76 77/115/75 70/106/71 71/105/70
f 76/118/78 78/116/76 71/105/70 72/110/72
s 13
f 79/121/79 80/122/80 82/123/81
f 80/122/80 81/124/82 82/123/81
f 81/124/82 79/121/79 82/123/81
f 84/125/83 83/126/84 81/127/82 80/128/80
f 79/129/79 85/130/85 84/125/83 80/128/80
f 83/126/84 85/131/85 79/132/79 81/127/82
f 87/133/86 86/134/87 90/135/88 91/136/89
f 88/137/90 87/133/86 91/136/89 89/138/91
f 86/134/87 88/139/90 89/140/91 90/135/88
f 90/135/88 89/140/91 85/131/85 83/126/84
f 91/136/89 90/135/88 83/126/84 84/125/83
f 89/138/91 91/136/89 84/125/83 85/130/85
s 15
f 92/141/92 93/142/93 95/143/94
f 93/142/93 94/144/95 95/143/94
f 94/144/95 92/141/92 95/143/94
f 97/145/96 96/146/97 94/147/95 93/148/93
f 92/149/92 98/150/98 97/145/96 93/148/93
f 96/146/97 98/151/98 92/152/92 94/147/95
f 100/153/99 99/154/100 103/155/101 104/156/102
f 101/157/103 100/153/99 104/156/102 102/158/104
f 99/154/100 101/159/103 102/160/104 103/155/101
f 103/155/101 102/160/104 98/151/98 96/146/97
f 104/156/102 103/155/101 96/146/97 97/145/96
f 102/158/104 104/156/102 97/145/96 98/150/98
s 17
f 105/161/105 106/162/106 108/163/107
f 106/162/106 107/164/108 108/163/107
f 107/164/108 105/161/105 108/163/107
f 110/165/109 109/166/110 107/167/108 106/168/106
f 105/169/105 111/170/111 110/165/109 106/168/106
f 109/166/110 111/171/111 105/172/105 107/167/108
f 113/173/112 112/174/113 116/175/114 117/176/115
f 114/177/116 113/173/112 117/176/115 115/178/117
f 112/174/113 114/179/116 115/180/117 116/175/114
f 116/175/114 115/180/117 111/171/111 109/166/110
f 117/176/115 116/175/114 109/166/110 110/165/109
f 115/178/117 117/176/115 110/165/109 111/170/111
s 19
f 118/181/118 119/182/119 121/183/120
f 119/182/119 120/184/121 121/183/120
f 120/184/121 118/181/118 121/183/120
f 123/185/122 122/186/123 120/187/121 119/188/119
f 118/189/118 124/190/124 123/185/122 119/188/119
f 122/186/123 124/191/124 118/192/118 120/187/121
f 126/193/125 125/194/126 129/195/127 130/196/128
f 127/197/129 126/193/125 130/196/128 128/198/130
f 125/194/126 127/199/129 128/200/130 129/195/127
f 129/195/127 128/200/130 124/191/124 122/186/123
f 130/196/128 129/195/127 122/186/123 123/185/122
f 128/198/130 130/196/128 123/185/122 124/190/124
