# This file uses centimeters as units for non-parametric coordinates.

mtllib ground.mtl
g default
v -416.935189 -1.904516 313.457732
v 414.336232 -1.904516 313.457732
v -416.935189 -1.904516 -414.604582
v 414.336232 -1.904516 -414.604582
vt 0.000000 0.000000
vt 1.000000 0.000000
vt 0.000000 0.247534
vt 1.000000 0.247534
vn 0.000000 1.000000 0.000000
vn 0.000000 1.000000 0.000000
vn 0.000000 1.000000 0.000000
vn 0.000000 1.000000 0.000000
s off
g pPlane1
usemtl lambert2SG
f 1/1/1 2/2/2 4/4/3 3/3/4
